  0
SECTION
  2
HEADER
  9
$ACADVER
  1
AC1009
  0
ENDSEC
  0
SECTION
  2
BLOCKS
  0
ENDSEC
  0
SECTION
  2
ENTITIES
  0
LINE
  8
CutLine
  6
CONTINUOUS
 62
8
 10
1297.900828
 20
123.957373
 11
1297.162969
 21
116.924907
  0
LINE
  8
CutLine
  6
CONTINUOUS
 62
8
 10
1297.162969
 20
116.924907
 11
1328.543863
 21
78.187033
  0
LINE
  8
CutLine
  6
CONTINUOUS
 62
8
 10
1328.543863
 20
78.187033
 11
1335.576328
 21
77.449175
  0
LINE
  8
CutLine
  6
CONTINUOUS
 62
8
 10
1407.526326
 20
26.234210
 11
1412.646331
 21
31.111253
  0
LINE
  8
CutLine
  6
CONTINUOUS
 62
8
 10
1412.646331
 20
31.111253
 11
1413.207636
 21
54.207011
  0
LINE
  8
CutLine
  6
CONTINUOUS
 62
8
 10
1413.207636
 20
54.207011
 11
1408.330594
 21
59.327016
  0
LINE
  8
CutLine
  6
CONTINUOUS
 62
8
 10
1409.367719
 20
243.361093
 11
1398.641767
 21
242.057094
  0
LINE
  8
CutLine
  6
CONTINUOUS
 62
8
 10
1398.641767
 20
242.057094
 11
1337.869877
 21
200.295211
  0
LINE
  8
CutLine
  6
CONTINUOUS
 62
8
 10
1337.869877
 20
200.295211
 11
1336.580852
 21
193.342628
  0
LINE
  8
CutLine
  6
CONTINUOUS
 62
8
 10
1298.092813
 20
147.274230
 11
1301.574851
 21
141.119930
  0
LINE
  8
CutLine
  6
CONTINUOUS
 62
8
 10
1301.574851
 20
141.119930
 11
1331.760245
 21
132.749190
  0
LINE
  8
CutLine
  6
CONTINUOUS
 62
8
 10
1434.354949
 20
134.461389
 11
1437.557488
 21
140.765653
  0
LINE
  8
CutLine
  6
CONTINUOUS
 62
8
 10
1437.557488
 20
140.765653
 11
1415.929040
 21
207.056974
  0
LINE
  8
CutLine
  6
CONTINUOUS
 62
8
 10
1415.929040
 20
207.056974
 11
1409.624776
 21
210.259513
  0
LINE
  8
MountainLine
  6
CONTINUOUS
 62
5
 10
1408.330594
 20
59.327016
 11
1341.423202
 21
135.258239
  0
LINE
  8
MountainLine
  6
CONTINUOUS
 62
5
 10
1335.576328
 20
77.449175
 11
1408.330594
 21
59.327016
  0
LINE
  8
CutLine
  6
CONTINUOUS
 62
8
 10
1341.423202
 20
135.258239
 11
1297.900828
 21
123.957373
  0
LINE
  8
MountainLine
  6
CONTINUOUS
 62
5
 10
1297.900828
 20
123.957373
 11
1335.576328
 21
77.449175
  0
LINE
  8
MountainLine
  6
CONTINUOUS
 62
5
 10
1434.354949
 20
134.461389
 11
1341.423202
 21
135.258239
  0
LINE
  8
MountainLine
  6
CONTINUOUS
 62
5
 10
1407.526326
 20
26.234210
 11
1408.330594
 21
59.327016
  0
LINE
  8
CutLine
  6
CONTINUOUS
 62
8
 10
1335.576328
 20
77.449175
 11
1407.526326
 21
26.234210
  0
LINE
  8
MountainLine
  6
CONTINUOUS
 62
5
 10
1409.367719
 20
243.361093
 11
1336.580852
 21
193.342628
  0
LINE
  8
MountainLine
  6
CONTINUOUS
 62
5
 10
1336.580852
 20
193.342628
 11
1409.624776
 21
210.259513
  0
LINE
  8
CutLine
  6
CONTINUOUS
 62
8
 10
1336.580852
 20
193.342628
 11
1298.092813
 21
147.274230
  0
LINE
  8
MountainLine
  6
CONTINUOUS
 62
5
 10
1298.092813
 20
147.274230
 11
1341.423202
 21
135.258239
  0
LINE
  8
MountainLine
  6
CONTINUOUS
 62
5
 10
1341.423202
 20
135.258239
 11
1409.624776
 21
210.259513
  0
LINE
  8
MountainLine
  6
CONTINUOUS
 62
5
 10
1434.354949
 20
134.461389
 11
1409.624776
 21
210.259513
  0
LINE
  8
CutLine
  6
CONTINUOUS
 62
8
 10
1408.330594
 20
59.327016
 11
1434.354949
 21
134.461389
  0
LINE
  8
CutLine
  6
CONTINUOUS
 62
8
 10
1409.624776
 20
210.259513
 11
1409.367719
 21
243.361093
 0
TEXT
100
AcDbText
 8
Edge ID
100
AcDbText
10
1421.989862
20
172.360451
30
0.0
40
1.920000
72
1
11
1421.989862
21
172.360451
31
0.0
1
50
50
108.069622
 0
TEXT
100
AcDbText
 8
Edge ID
100
AcDbText
10
1421.342771
20
96.894203
30
0.0
40
1.920000
72
1
11
1421.342771
21
96.894203
31
0.0
1
39
50
70.895407
 0
TEXT
100
AcDbText
 8
Edge ID
100
AcDbText
10
1407.928460
20
42.780613
30
0.0
40
1.920000
72
1
11
1407.928460
21
42.780613
31
0.0
1
47
50
88.607791
 0
TEXT
100
AcDbText
 8
Edge ID
100
AcDbText
10
1371.551327
20
51.841693
30
0.0
40
1.920000
72
1
11
1371.551327
21
51.841693
31
0.0
1
4
50
-35.443766
 0
TEXT
100
AcDbText
 8
Edge ID
100
AcDbText
10
1317.336832
20
170.308429
30
0.0
40
1.920000
72
1
11
1317.336832
21
170.308429
31
0.0
1
3
50
230.122787
 0
TEXT
100
AcDbText
 8
Edge ID
100
AcDbText
10
1319.758007
20
141.266235
30
0.0
40
1.920000
72
1
11
1319.758007
21
141.266235
31
0.0
1
49
50
-15.499276
 0
TEXT
100
AcDbText
 8
Edge ID
100
AcDbText
10
1319.662015
20
129.607806
30
0.0
40
1.920000
72
1
11
1319.662015
21
129.607806
31
0.0
1
49
50
194.555779
 0
TEXT
100
AcDbText
 8
Edge ID
100
AcDbText
10
1316.738578
20
100.703274
30
0.0
40
1.920000
72
1
11
1316.738578
21
100.703274
31
0.0
1
46
50
-50.989656
 0
TEXT
100
AcDbText
 8
Edge ID
100
AcDbText
10
1409.496247
20
226.810303
30
0.0
40
1.920000
72
1
11
1409.496247
21
226.810303
31
0.0
1
44
50
90.444933
 0
TEXT
100
AcDbText
 8
Edge ID
100
AcDbText
10
1372.974285
20
218.351861
30
0.0
40
1.920000
72
1
11
1372.974285
21
218.351861
31
0.0
1
48
50
214.496491
  0
ENDSEC
  0
EOF
