  0
SECTION
  2
HEADER
  9
$ACADVER
  1
AC1009
  0
ENDSEC
  0
SECTION
  2
BLOCKS
  0
ENDSEC
  0
SECTION
  2
ENTITIES
  0
LINE
  8
CutLine
  6
CONTINUOUS
 62
8
 10
1168.923171
 20
86.107623
 11
1167.984419
 21
79.099146
  0
LINE
  8
CutLine
  6
CONTINUOUS
 62
8
 10
1167.984419
 20
79.099146
 11
1203.838918
 21
32.154035
  0
LINE
  8
CutLine
  6
CONTINUOUS
 62
8
 10
1203.838918
 20
32.154035
 11
1214.988902
 21
25.792713
  0
LINE
  8
CutLine
  6
CONTINUOUS
 62
8
 10
1188.235575
 20
254.405088
 11
1183.018263
 21
249.632284
  0
LINE
  8
CutLine
  6
CONTINUOUS
 62
8
 10
1183.018263
 20
249.632284
 11
1178.699513
 21
152.570458
  0
LINE
  8
CutLine
  6
CONTINUOUS
 62
8
 10
1178.699513
 20
152.570458
 11
1183.472316
 21
147.353146
  0
LINE
  8
CutLine
  6
CONTINUOUS
 62
8
 10
1142.941074
 20
80.445895
 11
1146.858311
 21
86.332767
  0
LINE
  8
CutLine
  6
CONTINUOUS
 62
8
 10
1146.858311
 20
86.332767
 11
1136.397404
 21
138.403231
  0
LINE
  8
CutLine
  6
CONTINUOUS
 62
8
 10
1136.397404
 20
138.403231
 11
1130.510532
 21
142.320467
  0
LINE
  8
CutLine
  6
CONTINUOUS
 62
8
 10
1129.673831
 20
249.475060
 11
1123.165725
 21
252.239938
  0
LINE
  8
CutLine
  6
CONTINUOUS
 62
8
 10
1123.165725
 20
252.239938
 11
1078.412287
 21
234.174306
  0
LINE
  8
CutLine
  6
CONTINUOUS
 62
8
 10
1078.412287
 20
234.174306
 11
1075.647409
 21
227.666200
  0
LINE
  8
CutLine
  6
CONTINUOUS
 62
8
 10
1074.520514
 20
120.152320
 11
1074.030481
 21
97.651637
  0
LINE
  8
CutLine
  6
CONTINUOUS
 62
8
 10
1074.030481
 20
97.651637
 11
1088.770055
 21
25.772614
  0
LINE
  8
CutLine
  6
CONTINUOUS
 62
8
 10
1088.770055
 20
25.772614
 11
1094.672538
 21
21.878940
  0
LINE
  8
CutLine
  6
CONTINUOUS
 62
8
 10
1183.472316
 20
147.353146
 11
1168.923171
 21
86.107623
  0
LINE
  8
MountainLine
  6
CONTINUOUS
 62
5
 10
1168.923171
 20
86.107623
 11
1214.988902
 21
25.792713
  0
LINE
  8
MountainLine
  6
CONTINUOUS
 62
5
 10
1214.988902
 20
25.792713
 11
1183.472316
 21
147.353146
  0
LINE
  8
MountainLine
  6
CONTINUOUS
 62
5
 10
1238.612623
 20
123.148215
 11
1183.472316
 21
147.353146
  0
LINE
  8
CutLine
  6
CONTINUOUS
 62
8
 10
1214.988902
 20
25.792713
 11
1238.612623
 21
123.148215
  0
LINE
  8
MountainLine
  6
CONTINUOUS
 62
5
 10
1188.235575
 20
254.405088
 11
1183.472316
 21
147.353146
  0
LINE
  8
MountainLine
  6
CONTINUOUS
 62
5
 10
1238.612623
 20
123.148215
 11
1188.235575
 21
254.405088
  0
LINE
  8
CutLine
  6
CONTINUOUS
 62
8
 10
1241.426491
 20
230.631000
 11
1188.235575
 21
254.405088
  0
LINE
  8
CutLine
  6
CONTINUOUS
 62
8
 10
1238.612623
 20
123.148215
 11
1241.426491
 21
230.631000
  0
LINE
  8
MountainLine
  6
CONTINUOUS
 62
5
 10
1129.673831
 20
249.475060
 11
1074.520514
 21
120.152320
  0
LINE
  8
MountainLine
  6
CONTINUOUS
 62
5
 10
1074.520514
 20
120.152320
 11
1130.510532
 21
142.320467
  0
LINE
  8
CutLine
  6
CONTINUOUS
 62
8
 10
1130.510532
 20
142.320467
 11
1129.673831
 21
249.475060
  0
LINE
  8
MountainLine
  6
CONTINUOUS
 62
5
 10
1094.672538
 20
21.878940
 11
1130.510532
 21
142.320467
  0
LINE
  8
CutLine
  6
CONTINUOUS
 62
8
 10
1094.672538
 20
21.878940
 11
1142.941074
 21
80.445895
  0
LINE
  8
MountainLine
  6
CONTINUOUS
 62
5
 10
1142.941074
 20
80.445895
 11
1130.510532
 21
142.320467
  0
LINE
  8
CutLine
  6
CONTINUOUS
 62
8
 10
1075.647409
 20
227.666200
 11
1074.520514
 21
120.152320
  0
LINE
  8
ValleyLine
  6
CONTINUOUS
 62
1
 10
1129.673831
 20
249.475060
 11
1075.647409
 21
227.666200
  0
LINE
  8
MountainLine
  6
CONTINUOUS
 62
5
 10
1074.520514
 20
120.152320
 11
1094.672538
 21
21.878940
 0
TEXT
100
AcDbText
 8
Edge ID
100
AcDbText
10
1214.831033
20
242.518044
30
0.0
40
1.920000
72
1
11
1214.831033
21
242.518044
31
0.0
1
37
50
155.917379
 0
TEXT
100
AcDbText
 8
Edge ID
100
AcDbText
10
1240.019557
20
176.889608
30
0.0
40
1.920000
72
1
11
1240.019557
21
176.889608
31
0.0
1
19
50
88.500356
 0
TEXT
100
AcDbText
 8
Edge ID
100
AcDbText
10
1185.853946
20
200.879117
30
0.0
40
1.920000
72
1
11
1185.853946
21
200.879117
31
0.0
1
17
50
267.452314
 0
TEXT
100
AcDbText
 8
Edge ID
100
AcDbText
10
1226.800763
20
74.470464
30
0.0
40
1.920000
72
1
11
1226.800763
21
74.470464
31
0.0
1
23
50
76.360562
 0
TEXT
100
AcDbText
 8
Edge ID
100
AcDbText
10
1176.197744
20
116.730384
30
0.0
40
1.920000
72
1
11
1176.197744
21
116.730384
31
0.0
1
2
50
256.636830
 0
TEXT
100
AcDbText
 8
Edge ID
100
AcDbText
10
1191.956037
20
55.950168
30
0.0
40
1.920000
72
1
11
1191.956037
21
55.950168
31
0.0
1
16
50
-52.629087
 0
TEXT
100
AcDbText
 8
Edge ID
100
AcDbText
10
1075.083961
20
173.909260
30
0.0
40
1.920000
72
1
11
1075.083961
21
173.909260
31
0.0
1
28
50
269.399483
 0
TEXT
100
AcDbText
 8
Edge ID
100
AcDbText
10
1102.660620
20
238.570630
30
0.0
40
1.920000
72
1
11
1102.660620
21
238.570630
31
0.0
1
33
50
201.982464
 0
TEXT
100
AcDbText
 8
Edge ID
100
AcDbText
10
1118.806806
20
51.162417
30
0.0
40
1.920000
72
1
11
1118.806806
21
51.162417
31
0.0
1
16
50
50.506020
 0
TEXT
100
AcDbText
 8
Edge ID
100
AcDbText
10
1136.725803
20
111.383181
30
0.0
40
1.920000
72
1
11
1136.725803
21
111.383181
31
0.0
1
32
50
101.359454
 0
TEXT
100
AcDbText
 8
Edge ID
100
AcDbText
10
1084.596526
20
71.015630
30
0.0
40
1.920000
72
1
11
1084.596526
21
71.015630
31
0.0
1
34
50
-78.411528
 0
TEXT
100
AcDbText
 8
Edge ID
100
AcDbText
10
1130.092182
20
195.897764
30
0.0
40
1.920000
72
1
11
1130.092182
21
195.897764
31
0.0
1
1
50
90.447377
  0
ENDSEC
  0
EOF
