  0
SECTION
  2
HEADER
  9
$ACADVER
  1
AC1009
  0
ENDSEC
  0
SECTION
  2
BLOCKS
  0
ENDSEC
  0
SECTION
  2
ENTITIES
  0
LINE
  8
CutLine
  6
CONTINUOUS
 62
8
 10
2090.311754
 20
242.359650
 11
2086.159331
 21
248.083056
  0
LINE
  8
CutLine
  6
CONTINUOUS
 62
8
 10
2086.159331
 20
248.083056
 11
2003.008505
 21
261.310156
  0
LINE
  8
CutLine
  6
CONTINUOUS
 62
8
 10
2003.008505
 20
261.310156
 11
1997.285098
 21
257.157733
  0
LINE
  8
CutLine
  6
CONTINUOUS
 62
8
 10
2080.095064
 20
106.067175
 11
2075.667977
 21
111.580877
  0
LINE
  8
CutLine
  6
CONTINUOUS
 62
8
 10
2075.667977
 20
111.580877
 11
2001.998714
 21
119.633573
  0
LINE
  8
CutLine
  6
CONTINUOUS
 62
8
 10
2001.998714
 20
119.633573
 11
1996.485012
 21
115.206486
  0
LINE
  8
CutLine
  6
CONTINUOUS
 62
8
 10
1905.274314
 20
137.542301
 11
1902.857223
 21
130.897178
  0
LINE
  8
CutLine
  6
CONTINUOUS
 62
8
 10
1902.857223
 20
130.897178
 11
1957.755448
 21
13.230251
  0
LINE
  8
CutLine
  6
CONTINUOUS
 62
8
 10
1957.755448
 20
13.230251
 11
1964.645786
 21
10.287576
  0
LINE
  8
MountainLine
  6
CONTINUOUS
 62
5
 10
1979.677492
 20
177.027664
 11
1997.285098
 21
257.157733
  0
LINE
  8
CutLine
  6
CONTINUOUS
 62
8
 10
1997.285098
 20
257.157733
 11
1915.429439
 21
258.219761
  0
LINE
  8
CutLine
  6
CONTINUOUS
 62
8
 10
1915.429439
 20
258.219761
 11
1979.677492
 21
177.027664
  0
LINE
  8
CutLine
  6
CONTINUOUS
 62
8
 10
2063.939998
 20
152.735464
 11
2090.311754
 21
242.359650
  0
LINE
  8
MountainLine
  6
CONTINUOUS
 62
5
 10
2090.311754
 20
242.359650
 11
1997.285098
 21
257.157733
  0
LINE
  8
MountainLine
  6
CONTINUOUS
 62
5
 10
1997.285098
 20
257.157733
 11
2063.939998
 21
152.735464
  0
LINE
  8
CutLine
  6
CONTINUOUS
 62
8
 10
1979.677492
 20
177.027664
 11
2063.939998
 21
152.735464
  0
LINE
  8
ValleyLine
  6
CONTINUOUS
 62
1
 10
1996.485012
 20
115.206486
 11
1964.645786
 21
10.287576
  0
LINE
  8
CutLine
  6
CONTINUOUS
 62
8
 10
1964.645786
 20
10.287576
 11
2079.107088
 21
12.648856
  0
LINE
  8
CutLine
  6
CONTINUOUS
 62
8
 10
2079.107088
 20
12.648856
 11
2080.095064
 21
106.067175
  0
LINE
  8
MountainLine
  6
CONTINUOUS
 62
5
 10
2080.095064
 20
106.067175
 11
1996.485012
 21
115.206486
  0
LINE
  8
MountainLine
  6
CONTINUOUS
 62
5
 10
1996.485012
 20
115.206486
 11
1905.274314
 21
137.542301
  0
LINE
  8
CutLine
  6
CONTINUOUS
 62
8
 10
1995.736882
 20
162.508207
 11
1905.274314
 21
137.542301
  0
LINE
  8
CutLine
  6
CONTINUOUS
 62
8
 10
1996.485012
 20
115.206486
 11
1995.736882
 21
162.508207
  0
LINE
  8
MountainLine
  6
CONTINUOUS
 62
5
 10
1905.274314
 20
137.542301
 11
1964.645786
 21
10.287576
 0
TEXT
100
AcDbText
 8
Edge ID
100
AcDbText
10
2021.808745
20
164.881564
30
0.0
40
1.920000
72
1
11
2021.808745
21
164.881564
31
0.0
1
10
50
-16.081844
 0
TEXT
100
AcDbText
 8
Edge ID
100
AcDbText
10
2077.125876
20
197.547557
30
0.0
40
1.920000
72
1
11
2077.125876
21
197.547557
31
0.0
1
14
50
73.603575
 0
TEXT
100
AcDbText
 8
Edge ID
100
AcDbText
10
2043.798426
20
249.758691
30
0.0
40
1.920000
72
1
11
2043.798426
21
249.758691
31
0.0
1
18
50
170.961486
 0
TEXT
100
AcDbText
 8
Edge ID
100
AcDbText
10
1956.357269
20
257.688747
30
0.0
40
1.920000
72
1
11
1956.357269
21
257.688747
31
0.0
1
41
50
179.256663
 0
TEXT
100
AcDbText
 8
Edge ID
100
AcDbText
10
1947.553466
20
217.623712
30
0.0
40
1.920000
72
1
11
1947.553466
21
217.623712
31
0.0
1
53
50
-51.645107
 0
TEXT
100
AcDbText
 8
Edge ID
100
AcDbText
10
1996.110947
20
138.857346
30
0.0
40
1.920000
72
1
11
1996.110947
21
138.857346
31
0.0
1
59
50
90.906122
 0
TEXT
100
AcDbText
 8
Edge ID
100
AcDbText
10
1950.505598
20
150.025254
30
0.0
40
1.920000
72
1
11
1950.505598
21
150.025254
31
0.0
1
15
50
195.428467
 0
TEXT
100
AcDbText
 8
Edge ID
100
AcDbText
10
1934.960050
20
73.914939
30
0.0
40
1.920000
72
1
11
1934.960050
21
73.914939
31
0.0
1
62
50
-64.988308
 0
TEXT
100
AcDbText
 8
Edge ID
100
AcDbText
10
2079.601076
20
59.358015
30
0.0
40
1.920000
72
1
11
2079.601076
21
59.358015
31
0.0
1
8
50
89.394072
 0
TEXT
100
AcDbText
 8
Edge ID
100
AcDbText
10
2038.290038
20
110.636831
30
0.0
40
1.920000
72
1
11
2038.290038
21
110.636831
31
0.0
1
61
50
173.761836
 0
TEXT
100
AcDbText
 8
Edge ID
100
AcDbText
10
2021.876437
20
11.468216
30
0.0
40
1.920000
72
1
11
2021.876437
21
11.468216
31
0.0
1
26
50
1.181816
  0
ENDSEC
  0
EOF
