  0
SECTION
  2
HEADER
  9
$ACADVER
  1
AC1009
  0
ENDSEC
  0
SECTION
  2
BLOCKS
  0
ENDSEC
  0
SECTION
  2
ENTITIES
  0
LINE
  8
CutLine
  6
CONTINUOUS
 62
8
 10
471.160616
 20
236.795088
 11
467.682144
 21
230.638772
  0
LINE
  8
CutLine
  6
CONTINUOUS
 62
8
 10
467.682144
 20
230.638772
 11
491.659535
 21
144.368986
  0
LINE
  8
CutLine
  6
CONTINUOUS
 62
8
 10
491.659535
 20
144.368986
 11
498.446617
 21
138.621042
  0
LINE
  8
CutLine
  6
CONTINUOUS
 62
8
 10
573.184259
 20
49.157889
 11
575.365709
 21
55.884053
  0
LINE
  8
CutLine
  6
CONTINUOUS
 62
8
 10
575.365709
 20
55.884053
 11
536.351296
 21
132.352077
  0
LINE
  8
CutLine
  6
CONTINUOUS
 62
8
 10
536.351296
 20
132.352077
 11
527.654993
 21
138.394988
  0
LINE
  8
CutLine
  6
CONTINUOUS
 62
8
 10
469.847538
 20
40.821441
 11
474.141099
 21
35.203138
  0
LINE
  8
CutLine
  6
CONTINUOUS
 62
8
 10
474.141099
 20
35.203138
 11
527.145377
 21
28.119002
  0
LINE
  8
CutLine
  6
CONTINUOUS
 62
8
 10
527.145377
 20
28.119002
 11
532.763681
 21
32.412564
  0
LINE
  8
CutLine
  6
CONTINUOUS
 62
8
 10
574.561196
 20
227.071757
 11
571.953443
 21
233.644399
  0
LINE
  8
CutLine
  6
CONTINUOUS
 62
8
 10
571.953443
 20
233.644399
 11
540.967862
 21
247.026654
  0
LINE
  8
CutLine
  6
CONTINUOUS
 62
8
 10
540.967862
 20
247.026654
 11
534.395220
 21
244.418901
  0
LINE
  8
MountainLine
  6
CONTINUOUS
 62
5
 10
498.446617
 20
138.621042
 11
527.654993
 21
138.394988
  0
LINE
  8
CutLine
  6
CONTINUOUS
 62
8
 10
527.654993
 20
138.394988
 11
574.561196
 21
227.071757
  0
LINE
  8
MountainLine
  6
CONTINUOUS
 62
5
 10
574.561196
 20
227.071757
 11
498.446617
 21
138.621042
  0
LINE
  8
MountainLine
  6
CONTINUOUS
 62
5
 10
534.395220
 20
244.418901
 11
498.446617
 21
138.621042
  0
LINE
  8
MountainLine
  6
CONTINUOUS
 62
5
 10
471.160616
 20
236.795088
 11
498.446617
 21
138.621042
  0
LINE
  8
CutLine
  6
CONTINUOUS
 62
8
 10
534.395220
 20
244.418901
 11
471.160616
 21
236.795088
  0
LINE
  8
MountainLine
  6
CONTINUOUS
 62
5
 10
498.446617
 20
138.621042
 11
532.763681
 21
32.412564
  0
LINE
  8
CutLine
  6
CONTINUOUS
 62
8
 10
532.763681
 20
32.412564
 11
573.184259
 21
49.157889
  0
LINE
  8
MountainLine
  6
CONTINUOUS
 62
5
 10
573.184259
 20
49.157889
 11
498.446617
 21
138.621042
  0
LINE
  8
CutLine
  6
CONTINUOUS
 62
8
 10
498.446617
 20
138.621042
 11
469.847538
 21
40.821441
  0
LINE
  8
MountainLine
  6
CONTINUOUS
 62
5
 10
573.184259
 20
49.157889
 11
527.654993
 21
138.394988
  0
LINE
  8
MountainLine
  6
CONTINUOUS
 62
5
 10
469.847538
 20
40.821441
 11
532.763681
 21
32.412564
  0
LINE
  8
MountainLine
  6
CONTINUOUS
 62
5
 10
574.561196
 20
227.071757
 11
534.395220
 21
244.418901
 0
TEXT
100
AcDbText
 8
Edge ID
100
AcDbText
10
484.803617
20
187.708065
30
0.0
40
1.920000
72
1
11
484.803617
21
187.708065
31
0.0
1
22
50
-74.467528
 0
TEXT
100
AcDbText
 8
Edge ID
100
AcDbText
10
502.777918
20
240.606995
30
0.0
40
1.920000
72
1
11
502.777918
21
240.606995
31
0.0
1
30
50
186.874624
 0
TEXT
100
AcDbText
 8
Edge ID
100
AcDbText
10
484.147077
20
89.721241
30
0.0
40
1.920000
72
1
11
484.147077
21
89.721241
31
0.0
1
22
50
253.699744
 0
TEXT
100
AcDbText
 8
Edge ID
100
AcDbText
10
501.305609
20
36.617002
30
0.0
40
1.920000
72
1
11
501.305609
21
36.617002
31
0.0
1
24
50
-7.612590
 0
TEXT
100
AcDbText
 8
Edge ID
100
AcDbText
10
554.478208
20
235.745329
30
0.0
40
1.920000
72
1
11
554.478208
21
235.745329
31
0.0
1
25
50
156.641134
 0
TEXT
100
AcDbText
 8
Edge ID
100
AcDbText
10
550.419626
20
93.776439
30
0.0
40
1.920000
72
1
11
550.419626
21
93.776439
31
0.0
1
23
50
117.030928
 0
TEXT
100
AcDbText
 8
Edge ID
100
AcDbText
10
552.973970
20
40.785227
30
0.0
40
1.920000
72
1
11
552.973970
21
40.785227
31
0.0
1
20
50
22.503114
 0
TEXT
100
AcDbText
 8
Edge ID
100
AcDbText
10
551.108095
20
182.733373
30
0.0
40
1.920000
72
1
11
551.108095
21
182.733373
31
0.0
1
34
50
62.123082
  0
ENDSEC
  0
EOF
