  0
SECTION
  2
HEADER
  9
$ACADVER
  1
AC1009
  0
ENDSEC
  0
SECTION
  2
BLOCKS
  0
ENDSEC
  0
SECTION
  2
ENTITIES
  0
LINE
  8
CutLine
  6
CONTINUOUS
 62
8
 10
1270.192161
 20
73.196316
 11
1279.205535
 21
79.135005
  0
LINE
  8
CutLine
  6
CONTINUOUS
 62
8
 10
1279.205535
 20
79.135005
 11
1327.763174
 21
166.645933
  0
LINE
  8
CutLine
  6
CONTINUOUS
 62
8
 10
1327.763174
 20
166.645933
 11
1325.817066
 21
173.443923
  0
LINE
  8
CutLine
  6
CONTINUOUS
 62
8
 10
1294.197829
 20
183.854841
 11
1288.251467
 21
180.028514
  0
LINE
  8
CutLine
  6
CONTINUOUS
 62
8
 10
1288.251467
 20
180.028514
 11
1267.233580
 21
83.142714
  0
LINE
  8
CutLine
  6
CONTINUOUS
 62
8
 10
1267.233580
 20
83.142714
 11
1270.192161
 21
73.196316
  0
LINE
  8
CutLine
  6
CONTINUOUS
 62
8
 10
1373.200372
 20
238.482956
 11
1370.793975
 21
245.131960
  0
LINE
  8
CutLine
  6
CONTINUOUS
 62
8
 10
1370.793975
 20
245.131960
 11
1331.038921
 21
263.757863
  0
LINE
  8
CutLine
  6
CONTINUOUS
 62
8
 10
1331.038921
 20
263.757863
 11
1324.389918
 21
261.351465
  0
LINE
  8
CutLine
  6
CONTINUOUS
 62
8
 10
1404.653265
 20
112.001871
 11
1446.857085
 21
128.295393
  0
LINE
  8
CutLine
  6
CONTINUOUS
 62
8
 10
1446.857085
 20
128.295393
 11
1449.720745
 21
134.760642
  0
LINE
  8
CutLine
  6
CONTINUOUS
 62
8
 10
1342.260772
 20
141.824817
 11
1335.491716
 21
139.780341
  0
LINE
  8
CutLine
  6
CONTINUOUS
 62
8
 10
1335.491716
 20
139.780341
 11
1300.921848
 21
75.291518
  0
LINE
  8
CutLine
  6
CONTINUOUS
 62
8
 10
1300.921848
 20
75.291518
 11
1302.966323
 21
68.522462
  0
LINE
  8
CutLine
  6
CONTINUOUS
 62
8
 10
1369.338609
 20
19.893297
 11
1375.462340
 21
15.067781
  0
LINE
  8
CutLine
  6
CONTINUOUS
 62
8
 10
1375.462340
 20
15.067781
 11
1438.587338
 21
16.887821
  0
LINE
  8
CutLine
  6
CONTINUOUS
 62
8
 10
1438.587338
 20
16.887821
 11
1443.441160
 21
22.029845
  0
LINE
  8
CutLine
  6
CONTINUOUS
 62
8
 10
1443.441160
 20
22.029845
 11
1448.965527
 21
26.443616
  0
LINE
  8
CutLine
  6
CONTINUOUS
 62
8
 10
1448.965527
 20
26.443616
 11
1456.791788
 21
96.476636
  0
LINE
  8
CutLine
  6
CONTINUOUS
 62
8
 10
1456.791788
 20
96.476636
 11
1452.378018
 21
102.001003
  0
LINE
  8
MountainLine
  6
CONTINUOUS
 62
5
 10
1270.192161
 20
73.196316
 11
1325.817066
 21
173.443923
  0
LINE
  8
MountainLine
  6
CONTINUOUS
 62
5
 10
1294.197829
 20
183.854841
 11
1270.192161
 21
73.196316
  0
LINE
  8
CutLine
  6
CONTINUOUS
 62
8
 10
1325.817066
 20
173.443923
 11
1373.200372
 21
238.482956
  0
LINE
  8
MountainLine
  6
CONTINUOUS
 62
5
 10
1373.200372
 20
238.482956
 11
1324.389918
 21
261.351465
  0
LINE
  8
CutLine
  6
CONTINUOUS
 62
8
 10
1324.389918
 20
261.351465
 11
1294.197829
 21
183.854841
  0
LINE
  8
MountainLine
  6
CONTINUOUS
 62
5
 10
1401.084499
 20
238.578888
 11
1395.654779
 21
113.887532
  0
LINE
  8
CutLine
  6
CONTINUOUS
 62
8
 10
1449.720745
 20
134.760642
 11
1401.084499
 21
238.578888
  0
LINE
  8
CutLine
  6
CONTINUOUS
 62
8
 10
1401.084499
 20
238.578888
 11
1342.260772
 21
141.824817
  0
LINE
  8
ValleyLine
  6
CONTINUOUS
 62
1
 10
1395.654779
 20
113.887532
 11
1449.720745
 21
134.760642
  0
LINE
  8
MountainLine
  6
CONTINUOUS
 62
5
 10
1342.260772
 20
141.824817
 11
1395.654779
 21
113.887532
  0
LINE
  8
MountainLine
  6
CONTINUOUS
 62
5
 10
1342.260772
 20
141.824817
 11
1302.966323
 21
68.522462
  0
LINE
  8
MountainLine
  6
CONTINUOUS
 62
5
 10
1302.966323
 20
68.522462
 11
1395.654779
 21
113.887532
  0
LINE
  8
MountainLine
  6
CONTINUOUS
 62
5
 10
1302.966323
 20
68.522462
 11
1369.338609
 21
19.893297
  0
LINE
  8
MountainLine
  6
CONTINUOUS
 62
5
 10
1369.338609
 20
19.893297
 11
1395.654779
 21
113.887532
  0
LINE
  8
CutLine
  6
CONTINUOUS
 62
8
 10
1302.966323
 20
68.522462
 11
1295.356505
 21
15.160304
  0
LINE
  8
CutLine
  6
CONTINUOUS
 62
8
 10
1295.356505
 20
15.160304
 11
1369.338609
 21
19.893297
  0
LINE
  8
CutLine
  6
CONTINUOUS
 62
8
 10
1452.378018
 20
102.001003
 11
1395.654779
 21
113.887532
  0
LINE
  8
MountainLine
  6
CONTINUOUS
 62
5
 10
1369.338609
 20
19.893297
 11
1443.441160
 21
22.029845
  0
LINE
  8
MountainLine
  6
CONTINUOUS
 62
5
 10
1443.441160
 20
22.029845
 11
1452.378018
 21
102.001003
 0
TEXT
100
AcDbText
 8
Edge ID
100
AcDbText
10
1349.508719
20
205.963439
30
0.0
40
1.920000
72
1
11
1349.508719
21
205.963439
31
0.0
1
76
50
53.925298
 0
TEXT
100
AcDbText
 8
Edge ID
100
AcDbText
10
1348.795145
20
249.917211
30
0.0
40
1.920000
72
1
11
1348.795145
21
249.917211
31
0.0
1
72
50
154.896129
 0
TEXT
100
AcDbText
 8
Edge ID
100
AcDbText
10
1309.293873
20
222.603153
30
0.0
40
1.920000
72
1
11
1309.293873
21
222.603153
31
0.0
1
74
50
248.714495
 0
TEXT
100
AcDbText
 8
Edge ID
100
AcDbText
10
1298.004614
20
123.320120
30
0.0
40
1.920000
72
1
11
1298.004614
21
123.320120
31
0.0
1
70
50
60.975195
 0
TEXT
100
AcDbText
 8
Edge ID
100
AcDbText
10
1282.194995
20
128.525578
30
0.0
40
1.920000
72
1
11
1282.194995
21
128.525578
31
0.0
1
71
50
257.760212
 0
TEXT
100
AcDbText
 8
Edge ID
100
AcDbText
10
1299.161414
20
41.841383
30
0.0
40
1.920000
72
1
11
1299.161414
21
41.841383
31
0.0
1
72
50
261.883942
 0
TEXT
100
AcDbText
 8
Edge ID
100
AcDbText
10
1332.347557
20
17.526801
30
0.0
40
1.920000
72
1
11
1332.347557
21
17.526801
31
0.0
1
75
50
3.660500
 0
TEXT
100
AcDbText
 8
Edge ID
100
AcDbText
10
1406.389884
20
20.961571
30
0.0
40
1.920000
72
1
11
1406.389884
21
20.961571
31
0.0
1
75
50
1.651512
 0
TEXT
100
AcDbText
 8
Edge ID
100
AcDbText
10
1447.909589
20
62.015424
30
0.0
40
1.920000
72
1
11
1447.909589
21
62.015424
31
0.0
1
76
50
83.623594
 0
TEXT
100
AcDbText
 8
Edge ID
100
AcDbText
10
1371.672635
20
190.201853
30
0.0
40
1.920000
72
1
11
1371.672635
21
190.201853
31
0.0
1
71
50
238.701587
 0
TEXT
100
AcDbText
 8
Edge ID
100
AcDbText
10
1422.687762
20
124.324087
30
0.0
40
1.920000
72
1
11
1422.687762
21
124.324087
31
0.0
1
73
50
21.109952
 0
TEXT
100
AcDbText
 8
Edge ID
100
AcDbText
10
1425.402622
20
186.669765
30
0.0
40
1.920000
72
1
11
1425.402622
21
186.669765
31
0.0
1
70
50
115.101913
 0
TEXT
100
AcDbText
 8
Edge ID
100
AcDbText
10
1424.016399
20
107.944267
30
0.0
40
1.920000
72
1
11
1424.016399
21
107.944267
31
0.0
1
73
50
168.164749
 0
TEXT
100
AcDbText
 8
Edge ID
100
AcDbText
10
1322.613548
20
105.173639
30
0.0
40
1.920000
72
1
11
1322.613548
21
105.173639
31
0.0
1
74
50
241.806028
  0
ENDSEC
  0
EOF
