  0
SECTION
  2
HEADER
  9
$ACADVER
  1
AC1009
  0
ENDSEC
  0
SECTION
  2
BLOCKS
  0
ENDSEC
  0
SECTION
  2
ENTITIES
  0
LINE
  8
CutLine
  6
CONTINUOUS
 62
8
 10
1784.891027
 20
166.867644
 11
1777.827069
 21
167.184663
  0
LINE
  8
CutLine
  6
CONTINUOUS
 62
8
 10
1777.827069
 20
167.184663
 11
1740.899887
 21
133.429583
  0
LINE
  8
CutLine
  6
CONTINUOUS
 62
8
 10
1740.899887
 20
133.429583
 11
1740.582868
 21
126.365625
  0
LINE
  8
CutLine
  6
CONTINUOUS
 62
8
 10
1871.529965
 20
48.967949
 11
1873.503874
 21
55.757919
  0
LINE
  8
CutLine
  6
CONTINUOUS
 62
8
 10
1873.503874
 20
55.757919
 11
1839.504914
 21
117.626465
  0
LINE
  8
CutLine
  6
CONTINUOUS
 62
8
 10
1839.504914
 20
117.626465
 11
1828.996276
 21
126.367303
  0
LINE
  8
CutLine
  6
CONTINUOUS
 62
8
 10
1784.926126
 20
166.867645
 11
1784.891037
 21
166.832575
  0
LINE
  8
CutLine
  6
CONTINUOUS
 62
8
 10
1698.046125
 20
48.967949
 11
1703.046125
 21
43.967949
  0
LINE
  8
CutLine
  6
CONTINUOUS
 62
8
 10
1703.046125
 20
43.967949
 11
1866.529965
 21
43.967949
  0
LINE
  8
CutLine
  6
CONTINUOUS
 62
8
 10
1866.529965
 20
43.967949
 11
1871.529965
 21
48.967949
  0
LINE
  8
ValleyLine
  6
CONTINUOUS
 62
1
 10
1784.909670
 20
106.773006
 11
1698.046125
 21
48.967949
  0
LINE
  8
ValleyLine
  6
CONTINUOUS
 62
1
 10
1871.529965
 20
48.967949
 11
1784.909670
 21
106.773006
  0
LINE
  8
CutLine
  6
CONTINUOUS
 62
8
 10
1740.582868
 20
126.365625
 11
1698.046125
 21
48.967949
  0
LINE
  8
MountainLine
  6
CONTINUOUS
 62
5
 10
1784.909670
 20
106.773006
 11
1740.582868
 21
126.365625
  0
LINE
  8
MountainLine
  6
CONTINUOUS
 62
5
 10
1784.891027
 20
166.867644
 11
1740.582868
 21
126.365625
  0
LINE
  8
CutLine
  6
CONTINUOUS
 62
8
 10
1784.909670
 20
106.773006
 11
1784.891027
 21
166.867644
  0
LINE
  8
MountainLine
  6
CONTINUOUS
 62
5
 10
1828.996276
 20
126.367303
 11
1784.909670
 21
106.773006
  0
LINE
  8
MountainLine
  6
CONTINUOUS
 62
5
 10
1871.529965
 20
48.967949
 11
1828.996276
 21
126.367303
  0
LINE
  8
ValleyLine
  6
CONTINUOUS
 62
1
 10
1784.926126
 20
166.867645
 11
1784.909670
 21
106.773006
  0
LINE
  8
CutLine
  6
CONTINUOUS
 62
8
 10
1828.996276
 20
126.367303
 11
1784.926126
 21
166.867645
  0
LINE
  8
ValleyLine
  6
CONTINUOUS
 62
1
 10
1698.046125
 20
48.967949
 11
1871.529965
 21
48.967949
  0
LINE
  8
ValleyLine
  6
CONTINUOUS
 62
1
 10
1807.904869
 20
245.655951
 11
1806.361819
 21
240.475750
  0
LINE
  8
MountainLine
  6
CONTINUOUS
 62
5
 10
1806.361819
 20
240.475750
 11
1819.312145
 21
240.966391
  0
LINE
  8
CutLine
  6
CONTINUOUS
 62
8
 10
1819.312145
 20
240.966391
 11
1807.904869
 21
245.655951
  0
LINE
  8
CutLine
  6
CONTINUOUS
 62
8
 10
1839.725846
 20
233.267714
 11
1819.312145
 21
240.966391
  0
LINE
  8
CutLine
  6
CONTINUOUS
 62
8
 10
1806.361819
 20
240.475750
 11
1812.541386
 21
225.052112
  0
LINE
  8
CutLine
  6
CONTINUOUS
 62
8
 10
1812.541386
 20
225.052112
 11
1825.773905
 21
232.607535
  0
LINE
  8
CutLine
  6
CONTINUOUS
 62
8
 10
1860.140183
 20
225.568790
 11
1839.725846
 21
233.267714
  0
LINE
  8
CutLine
  6
CONTINUOUS
 62
8
 10
1825.773905
 20
232.607535
 11
1832.874397
 21
220.884474
  0
LINE
  8
CutLine
  6
CONTINUOUS
 62
8
 10
1832.874397
 20
220.884474
 11
1845.141269
 21
225.161349
  0
LINE
  8
CutLine
  6
CONTINUOUS
 62
8
 10
1845.141269
 20
225.161349
 11
1852.775610
 21
215.640212
  0
LINE
  8
CutLine
  6
CONTINUOUS
 62
8
 10
1852.775610
 20
215.640212
 11
1877.934180
 21
218.985819
  0
LINE
  8
CutLine
  6
CONTINUOUS
 62
8
 10
1877.934180
 20
218.985819
 11
1860.140183
 21
225.568790
  0
LINE
  8
CutLine
  6
CONTINUOUS
 62
8
 10
1759.577640
 20
252.142123
 11
1748.322683
 21
253.877093
  0
LINE
  8
ValleyLine
  6
CONTINUOUS
 62
1
 10
1748.322683
 20
253.877093
 11
1751.177121
 21
248.048187
  0
LINE
  8
CutLine
  6
CONTINUOUS
 62
8
 10
1807.904869
 20
245.655951
 11
1797.784303
 21
247.153941
  0
LINE
  8
CutLine
  6
CONTINUOUS
 62
8
 10
1778.680972
 20
249.648032
 11
1759.577640
 21
252.142123
  0
LINE
  8
CutLine
  6
CONTINUOUS
 62
8
 10
1751.177121
 20
248.048187
 11
1762.472248
 21
235.863187
  0
LINE
  8
CutLine
  6
CONTINUOUS
 62
8
 10
1762.472248
 20
235.863187
 11
1769.980872
 21
245.507988
  0
LINE
  8
CutLine
  6
CONTINUOUS
 62
8
 10
1797.784303
 20
247.153941
 11
1778.680972
 21
249.648032
  0
LINE
  8
CutLine
  6
CONTINUOUS
 62
8
 10
1769.980872
 20
245.507988
 11
1780.245448
 21
233.527225
  0
LINE
  8
CutLine
  6
CONTINUOUS
 62
8
 10
1780.245448
 20
233.527225
 11
1788.107460
 21
243.074524
  0
LINE
  8
CutLine
  6
CONTINUOUS
 62
8
 10
1788.107460
 20
243.074524
 11
1798.022429
 21
231.219962
  0
LINE
  8
CutLine
  6
CONTINUOUS
 62
8
 10
1798.022429
 20
231.219962
 11
1806.361819
 21
240.475750
  0
LINE
  8
CutLine
  6
CONTINUOUS
 62
8
 10
1714.993948
 20
189.881491
 11
1708.559248
 21
169.035155
  0
LINE
  8
CutLine
  6
CONTINUOUS
 62
8
 10
1708.559248
 20
169.035155
 11
1702.123921
 21
148.187969
  0
LINE
  8
CutLine
  6
CONTINUOUS
 62
8
 10
1714.482320
 20
147.917732
 11
1711.642463
 21
159.786709
  0
LINE
  8
CutLine
  6
CONTINUOUS
 62
8
 10
1702.123921
 20
148.187969
 11
1696.413713
 21
130.095004
  0
LINE
  8
CutLine
  6
CONTINUOUS
 62
8
 10
1696.413713
 20
130.095004
 11
1714.482320
 21
147.917732
  0
LINE
  8
CutLine
  6
CONTINUOUS
 62
8
 10
1722.542306
 20
166.855132
 11
1717.635054
 21
179.651663
  0
LINE
  8
CutLine
  6
CONTINUOUS
 62
8
 10
1711.642463
 20
159.786709
 11
1722.542306
 21
166.855132
  0
LINE
  8
CutLine
  6
CONTINUOUS
 62
8
 10
1718.284236
 20
201.768394
 11
1714.993948
 21
189.881491
  0
LINE
  8
MountainLine
  6
CONTINUOUS
 62
5
 10
1714.993948
 20
189.881491
 11
1723.322540
 21
199.811106
  0
LINE
  8
ValleyLine
  6
CONTINUOUS
 62
1
 10
1723.322540
 20
199.811106
 11
1718.284236
 21
201.768394
  0
LINE
  8
CutLine
  6
CONTINUOUS
 62
8
 10
1731.717150
 20
185.472190
 11
1723.322540
 21
199.811106
  0
LINE
  8
CutLine
  6
CONTINUOUS
 62
8
 10
1717.635054
 20
179.651663
 11
1731.717150
 21
185.472190
  0
LINE
  8
CutLine
  6
CONTINUOUS
 62
8
 10
1723.306308
 20
210.681789
 11
1718.284236
 21
201.768394
  0
LINE
  8
CutLine
  6
CONTINUOUS
 62
8
 10
1742.791707
 20
243.921987
 11
1733.048731
 21
227.301753
  0
LINE
  8
CutLine
  6
CONTINUOUS
 62
8
 10
1733.048731
 20
227.301753
 11
1723.306308
 21
210.681789
  0
LINE
  8
CutLine
  6
CONTINUOUS
 62
8
 10
1735.780208
 20
200.780945
 11
1732.462272
 21
215.824868
  0
LINE
  8
CutLine
  6
CONTINUOUS
 62
8
 10
1723.322540
 20
199.811106
 11
1735.780208
 21
200.780945
  0
LINE
  8
CutLine
  6
CONTINUOUS
 62
8
 10
1744.857518
 20
216.238854
 11
1741.654250
 21
231.636335
  0
LINE
  8
CutLine
  6
CONTINUOUS
 62
8
 10
1732.462272
 20
215.824868
 11
1744.857518
 21
216.238854
  0
LINE
  8
CutLine
  6
CONTINUOUS
 62
8
 10
1748.322683
 20
253.877093
 11
1742.791707
 21
243.921987
  0
LINE
  8
CutLine
  6
CONTINUOUS
 62
8
 10
1753.910911
 20
231.711225
 11
1751.177121
 21
248.048187
  0
LINE
  8
CutLine
  6
CONTINUOUS
 62
8
 10
1741.654250
 20
231.636335
 11
1753.910911
 21
231.711225
 0
TEXT
100
AcDbText
 8
Edge ID
100
AcDbText
10
1784.917898
20
136.820325
30
0.0
40
1.920000
72
1
11
1784.917898
21
136.820325
31
0.0
1
5
50
269.984310
 0
TEXT
100
AcDbText
 8
Edge ID
100
AcDbText
10
1806.961201
20
146.617474
30
0.0
40
1.920000
72
1
11
1806.961201
21
146.617474
31
0.0
1
46
50
137.417080
 0
TEXT
100
AcDbText
 8
Edge ID
100
AcDbText
10
1762.736947
20
146.616635
30
0.0
40
1.920000
72
1
11
1762.736947
21
146.616635
31
0.0
1
3
50
222.430385
 0
TEXT
100
AcDbText
 8
Edge ID
100
AcDbText
10
1784.900348
20
136.820325
30
0.0
40
1.920000
72
1
11
1784.900348
21
136.820325
31
0.0
1
5
50
90.017775
 0
TEXT
100
AcDbText
 8
Edge ID
100
AcDbText
10
1850.263121
20
87.667626
30
0.0
40
1.920000
72
1
11
1850.263121
21
87.667626
31
0.0
1
4
50
118.790355
 0
TEXT
100
AcDbText
 8
Edge ID
100
AcDbText
10
1719.314496
20
87.666787
30
0.0
40
1.920000
72
1
11
1719.314496
21
87.666787
31
0.0
1
48
50
241.207385
 0
TEXT
100
AcDbText
 8
Edge ID
100
AcDbText
10
1784.788045
20
48.967949
30
0.0
40
1.920000
72
1
11
1784.788045
21
48.967949
31
0.0
1
6
50
0.000000
  0
ENDSEC
  0
EOF
