  0
SECTION
  2
HEADER
  9
$ACADVER
  1
AC1009
  0
ENDSEC
  0
SECTION
  2
BLOCKS
  0
ENDSEC
  0
SECTION
  2
ENTITIES
  0
LINE
  8
CutLine
  6
CONTINUOUS
 62
8
 10
402.005730
 20
22.727774
 11
404.085543
 21
29.486057
  0
LINE
  8
CutLine
  6
CONTINUOUS
 62
8
 10
404.085543
 20
29.486057
 11
361.770381
 21
109.423597
  0
LINE
  8
CutLine
  6
CONTINUOUS
 62
8
 10
361.770381
 20
109.423597
 11
351.703000
 21
117.754625
  0
LINE
  8
CutLine
  6
CONTINUOUS
 62
8
 10
351.703000
 20
117.754625
 11
345.573740
 21
121.280553
  0
LINE
  8
CutLine
  6
CONTINUOUS
 62
8
 10
345.573740
 20
121.280553
 11
312.985642
 21
112.493808
  0
LINE
  8
CutLine
  6
CONTINUOUS
 62
8
 10
312.985642
 20
112.493808
 11
309.459714
 21
106.364548
  0
LINE
  8
CutLine
  6
CONTINUOUS
 62
8
 10
237.564680
 20
23.679083
 11
243.364350
 21
18.504602
  0
LINE
  8
CutLine
  6
CONTINUOUS
 62
8
 10
243.364350
 20
18.504602
 11
331.643837
 21
15.882323
  0
LINE
  8
CutLine
  6
CONTINUOUS
 62
8
 10
331.643837
 20
15.882323
 11
336.790088
 21
20.731663
  0
LINE
  8
CutLine
  6
CONTINUOUS
 62
8
 10
352.413364
 20
141.466053
 11
362.036147
 21
150.306905
  0
LINE
  8
CutLine
  6
CONTINUOUS
 62
8
 10
362.036147
 20
150.306905
 11
400.158039
 21
232.327224
  0
LINE
  8
CutLine
  6
CONTINUOUS
 62
8
 10
400.158039
 20
232.327224
 11
397.731284
 21
238.968825
  0
LINE
  8
CutLine
  6
CONTINUOUS
 62
8
 10
233.354737
 20
229.485979
 11
229.488906
 21
221.727037
  0
LINE
  8
CutLine
  6
CONTINUOUS
 62
8
 10
229.488906
 20
221.727037
 11
240.355888
 21
151.046448
  0
LINE
  8
CutLine
  6
CONTINUOUS
 62
8
 10
240.355888
 20
151.046448
 11
246.057630
 21
146.864327
  0
LINE
  8
CutLine
  6
CONTINUOUS
 62
8
 10
246.057630
 20
146.864327
 11
251.346333
 21
142.170754
  0
LINE
  8
CutLine
  6
CONTINUOUS
 62
8
 10
251.346333
 20
142.170754
 11
304.943689
 21
145.366155
  0
LINE
  8
CutLine
  6
CONTINUOUS
 62
8
 10
304.943689
 20
145.366155
 11
309.637262
 21
150.654857
  0
LINE
  8
CutLine
  6
CONTINUOUS
 62
8
 10
332.499723
 20
237.587534
 11
327.109119
 21
242.163710
  0
LINE
  8
CutLine
  6
CONTINUOUS
 62
8
 10
327.109119
 20
242.163710
 11
238.889905
 21
234.954947
  0
LINE
  8
CutLine
  6
CONTINUOUS
 62
8
 10
238.889905
 20
234.954947
 11
233.354737
 21
229.485979
  0
LINE
  8
CutLine
  6
CONTINUOUS
 62
8
 10
336.790088
 20
20.731663
 11
402.005730
 21
22.727774
  0
LINE
  8
ValleyLine
  6
CONTINUOUS
 62
1
 10
402.005730
 20
22.727774
 11
351.703000
 21
117.754625
  0
LINE
  8
MountainLine
  6
CONTINUOUS
 62
5
 10
351.703000
 20
117.754625
 11
336.790088
 21
20.731663
  0
LINE
  8
MountainLine
  6
CONTINUOUS
 62
5
 10
309.459714
 20
106.364548
 11
336.790088
 21
20.731663
  0
LINE
  8
MountainLine
  6
CONTINUOUS
 62
5
 10
351.703000
 20
117.754625
 11
309.459714
 21
106.364548
  0
LINE
  8
CutLine
  6
CONTINUOUS
 62
8
 10
309.459714
 20
106.364548
 11
245.985954
 21
106.846282
  0
LINE
  8
CutLine
  6
CONTINUOUS
 62
8
 10
245.985954
 20
106.846282
 11
237.564680
 21
23.679083
  0
LINE
  8
MountainLine
  6
CONTINUOUS
 62
5
 10
237.564680
 20
23.679083
 11
309.459714
 21
106.364548
  0
LINE
  8
ValleyLine
  6
CONTINUOUS
 62
1
 10
237.564680
 20
23.679083
 11
336.790088
 21
20.731663
  0
LINE
  8
MountainLine
  6
CONTINUOUS
 62
5
 10
332.499723
 20
237.587534
 11
309.637262
 21
150.654857
  0
LINE
  8
CutLine
  6
CONTINUOUS
 62
8
 10
309.637262
 20
150.654857
 11
352.413364
 21
141.466053
  0
LINE
  8
MountainLine
  6
CONTINUOUS
 62
5
 10
352.413364
 20
141.466053
 11
332.499723
 21
237.587534
  0
LINE
  8
ValleyLine
  6
CONTINUOUS
 62
1
 10
352.413364
 20
141.466053
 11
397.731284
 21
238.968825
  0
LINE
  8
MountainLine
  6
CONTINUOUS
 62
5
 10
233.354737
 20
229.485979
 11
246.057630
 21
146.864327
  0
LINE
  8
MountainLine
  6
CONTINUOUS
 62
5
 10
246.057630
 20
146.864327
 11
309.637262
 21
150.654857
  0
LINE
  8
MountainLine
  6
CONTINUOUS
 62
5
 10
309.637262
 20
150.654857
 11
233.354737
 21
229.485979
  0
LINE
  8
ValleyLine
  6
CONTINUOUS
 62
1
 10
332.499723
 20
237.587534
 11
233.354737
 21
229.485979
  0
LINE
  8
CutLine
  6
CONTINUOUS
 62
8
 10
397.731284
 20
238.968825
 11
332.499723
 21
237.587534
 0
TEXT
100
AcDbText
 8
Edge ID
100
AcDbText
10
287.177384
20
22.205373
30
0.0
40
1.920000
72
1
11
287.177384
21
22.205373
31
0.0
1
21
50
-1.701430
 0
TEXT
100
AcDbText
 8
Edge ID
100
AcDbText
10
330.581357
20
112.059586
30
0.0
40
1.920000
72
1
11
330.581357
21
112.059586
31
0.0
1
20
50
195.089839
 0
TEXT
100
AcDbText
 8
Edge ID
100
AcDbText
10
369.397909
20
21.729718
30
0.0
40
1.920000
72
1
11
369.397909
21
21.729718
31
0.0
1
12
50
1.753154
 0
TEXT
100
AcDbText
 8
Edge ID
100
AcDbText
10
376.854365
20
70.241200
30
0.0
40
1.920000
72
1
11
376.854365
21
70.241200
31
0.0
1
19
50
117.894632
 0
TEXT
100
AcDbText
 8
Edge ID
100
AcDbText
10
277.722834
20
106.605415
30
0.0
40
1.920000
72
1
11
277.722834
21
106.605415
31
0.0
1
24
50
179.565162
 0
TEXT
100
AcDbText
 8
Edge ID
100
AcDbText
10
241.775317
20
65.262682
30
0.0
40
1.920000
72
1
11
241.775317
21
65.262682
31
0.0
1
29
50
264.218099
 0
TEXT
100
AcDbText
 8
Edge ID
100
AcDbText
10
282.927230
20
233.536757
30
0.0
40
1.920000
72
1
11
282.927230
21
233.536757
31
0.0
1
31
50
184.671500
 0
TEXT
100
AcDbText
 8
Edge ID
100
AcDbText
10
375.072324
20
190.217439
30
0.0
40
1.920000
72
1
11
375.072324
21
190.217439
31
0.0
1
28
50
65.071656
 0
TEXT
100
AcDbText
 8
Edge ID
100
AcDbText
10
365.115503
20
238.278179
30
0.0
40
1.920000
72
1
11
365.115503
21
238.278179
31
0.0
1
27
50
181.213068
 0
TEXT
100
AcDbText
 8
Edge ID
100
AcDbText
10
331.025313
20
146.060455
30
0.0
40
1.920000
72
1
11
331.025313
21
146.060455
31
0.0
1
25
50
-12.123564
 0
TEXT
100
AcDbText
 8
Edge ID
100
AcDbText
10
239.706184
20
188.175153
30
0.0
40
1.920000
72
1
11
239.706184
21
188.175153
31
0.0
1
29
50
-81.259345
 0
TEXT
100
AcDbText
 8
Edge ID
100
AcDbText
10
277.847446
20
148.759592
30
0.0
40
1.920000
72
1
11
277.847446
21
148.759592
31
0.0
1
30
50
3.411857
  0
ENDSEC
  0
EOF
