  0
SECTION
  2
HEADER
  9
$ACADVER
  1
AC1009
  0
ENDSEC
  0
SECTION
  2
BLOCKS
  0
ENDSEC
  0
SECTION
  2
ENTITIES
  0
LINE
  8
CutLine
  6
CONTINUOUS
 62
8
 10
1122.817031
 20
100.664846
 11
1124.431820
 21
107.549064
  0
LINE
  8
CutLine
  6
CONTINUOUS
 62
8
 10
1124.431820
 20
107.549064
 11
1071.695403
 21
192.607062
  0
LINE
  8
CutLine
  6
CONTINUOUS
 62
8
 10
1071.695403
 20
192.607062
 11
1062.405110
 21
198.102582
  0
LINE
  8
CutLine
  6
CONTINUOUS
 62
8
 10
1062.405110
 20
198.102582
 11
1059.931432
 21
188.024616
  0
LINE
  8
CutLine
  6
CONTINUOUS
 62
8
 10
1059.931432
 20
188.024616
 11
1085.614171
 21
92.269712
  0
LINE
  8
CutLine
  6
CONTINUOUS
 62
8
 10
1085.614171
 20
92.269712
 11
1091.738767
 21
88.735687
  0
LINE
  8
CutLine
  6
CONTINUOUS
 62
8
 10
1125.647099
 20
12.790806
 11
1132.404811
 21
10.709143
  0
LINE
  8
CutLine
  6
CONTINUOUS
 62
8
 10
1132.404811
 20
10.709143
 11
1171.211174
 21
31.237791
  0
LINE
  8
CutLine
  6
CONTINUOUS
 62
8
 10
1171.211174
 20
31.237791
 11
1173.292837
 21
37.995503
  0
LINE
  8
CutLine
  6
CONTINUOUS
 62
8
 10
1239.189166
 20
171.839781
 11
1243.791226
 21
177.208305
  0
LINE
  8
CutLine
  6
CONTINUOUS
 62
8
 10
1243.791226
 20
177.208305
 11
1238.390039
 21
247.469969
  0
LINE
  8
CutLine
  6
CONTINUOUS
 62
8
 10
1238.390039
 20
247.469969
 11
1233.021515
 21
252.072029
  0
LINE
  8
CutLine
  6
CONTINUOUS
 62
8
 10
1233.021515
 20
252.072029
 11
1228.348306
 21
257.378734
  0
LINE
  8
CutLine
  6
CONTINUOUS
 62
8
 10
1228.348306
 20
257.378734
 11
1165.323956
 21
261.379336
  0
LINE
  8
CutLine
  6
CONTINUOUS
 62
8
 10
1165.323956
 20
261.379336
 11
1159.037075
 21
256.768346
  0
LINE
  8
CutLine
  6
CONTINUOUS
 62
8
 10
1173.800282
 20
157.943093
 11
1149.017729
 21
117.366970
  0
LINE
  8
CutLine
  6
CONTINUOUS
 62
8
 10
1149.017729
 20
117.366970
 11
1150.678611
 21
110.493726
  0
LINE
  8
CutLine
  6
CONTINUOUS
 62
8
 10
1091.023690
 20
210.462721
 11
1088.746491
 21
203.768368
  0
LINE
  8
CutLine
  6
CONTINUOUS
 62
8
 10
1088.746491
 20
203.768368
 11
1121.067205
 21
138.122704
  0
LINE
  8
CutLine
  6
CONTINUOUS
 62
8
 10
1121.067205
 20
138.122704
 11
1127.761558
 21
135.845504
  0
LINE
  8
MountainLine
  6
CONTINUOUS
 62
5
 10
1122.817031
 20
100.664846
 11
1062.405110
 21
198.102582
  0
LINE
  8
MountainLine
  6
CONTINUOUS
 62
5
 10
1062.405110
 20
198.102582
 11
1091.738767
 21
88.735687
  0
LINE
  8
CutLine
  6
CONTINUOUS
 62
8
 10
1091.738767
 20
88.735687
 11
1125.647099
 21
12.790806
  0
LINE
  8
MountainLine
  6
CONTINUOUS
 62
5
 10
1125.647099
 20
12.790806
 11
1173.292837
 21
37.995503
  0
LINE
  8
CutLine
  6
CONTINUOUS
 62
8
 10
1173.292837
 20
37.995503
 11
1122.817031
 21
100.664846
  0
LINE
  8
ValleyLine
  6
CONTINUOUS
 62
1
 10
1182.088988
 20
161.921492
 11
1239.189166
 21
171.839781
  0
LINE
  8
MountainLine
  6
CONTINUOUS
 62
5
 10
1159.037075
 20
256.768346
 11
1182.088988
 21
161.921492
  0
LINE
  8
MountainLine
  6
CONTINUOUS
 62
5
 10
1182.088988
 20
161.921492
 11
1250.899650
 21
57.793399
  0
LINE
  8
CutLine
  6
CONTINUOUS
 62
8
 10
1250.899650
 20
57.793399
 11
1239.189166
 21
171.839781
  0
LINE
  8
MountainLine
  6
CONTINUOUS
 62
5
 10
1239.189166
 20
171.839781
 11
1233.021515
 21
252.072029
  0
LINE
  8
MountainLine
  6
CONTINUOUS
 62
5
 10
1233.021515
 20
252.072029
 11
1159.037075
 21
256.768346
  0
LINE
  8
CutLine
  6
CONTINUOUS
 62
8
 10
1150.678611
 20
110.493726
 11
1250.899650
 21
57.793399
  0
LINE
  8
MountainLine
  6
CONTINUOUS
 62
5
 10
1182.088988
 20
161.921492
 11
1150.678611
 21
110.493726
  0
LINE
  8
CutLine
  6
CONTINUOUS
 62
8
 10
1127.761558
 20
135.845504
 11
1182.088988
 21
161.921492
  0
LINE
  8
MountainLine
  6
CONTINUOUS
 62
5
 10
1182.088988
 20
161.921492
 11
1091.023690
 21
210.462721
  0
LINE
  8
MountainLine
  6
CONTINUOUS
 62
5
 10
1091.023690
 20
210.462721
 11
1127.761558
 21
135.845504
  0
LINE
  8
MountainLine
  6
CONTINUOUS
 62
5
 10
1159.037075
 20
256.768346
 11
1091.023690
 21
210.462721
  0
LINE
  8
CutLine
  6
CONTINUOUS
 62
8
 10
1159.037075
 20
256.768346
 11
1085.262772
 21
264.055678
  0
LINE
  8
CutLine
  6
CONTINUOUS
 62
8
 10
1085.262772
 20
264.055678
 11
1091.023690
 21
210.462721
 0
TEXT
100
AcDbText
 8
Edge ID
100
AcDbText
10
1108.692933
20
50.763247
30
0.0
40
1.920000
72
1
11
1108.692933
21
50.763247
31
0.0
1
69
50
-65.939903
 0
TEXT
100
AcDbText
 8
Edge ID
100
AcDbText
10
1149.469968
20
25.393155
30
0.0
40
1.920000
72
1
11
1149.469968
21
25.393155
31
0.0
1
65
50
27.878935
 0
TEXT
100
AcDbText
 8
Edge ID
100
AcDbText
10
1148.054934
20
69.330174
30
0.0
40
1.920000
72
1
11
1148.054934
21
69.330174
31
0.0
1
66
50
128.849032
 0
TEXT
100
AcDbText
 8
Edge ID
100
AcDbText
10
1092.611071
20
149.383714
30
0.0
40
1.920000
72
1
11
1092.611071
21
149.383714
31
0.0
1
63
50
121.799135
 0
TEXT
100
AcDbText
 8
Edge ID
100
AcDbText
10
1077.071938
20
143.419135
30
0.0
40
1.920000
72
1
11
1077.071938
21
143.419135
31
0.0
1
64
50
-74.985882
 0
TEXT
100
AcDbText
 8
Edge ID
100
AcDbText
10
1122.149923
20
260.412012
30
0.0
40
1.920000
72
1
11
1122.149923
21
260.412012
31
0.0
1
67
50
174.358696
 0
TEXT
100
AcDbText
 8
Edge ID
100
AcDbText
10
1088.143231
20
237.259199
30
0.0
40
1.920000
72
1
11
1088.143231
21
237.259199
31
0.0
1
65
50
-83.864610
 0
TEXT
100
AcDbText
 8
Edge ID
100
AcDbText
10
1236.105341
20
211.955905
30
0.0
40
1.920000
72
1
11
1236.105341
21
211.955905
31
0.0
1
66
50
94.395823
 0
TEXT
100
AcDbText
 8
Edge ID
100
AcDbText
10
1196.029295
20
254.420188
30
0.0
40
1.920000
72
1
11
1196.029295
21
254.420188
31
0.0
1
67
50
176.367904
 0
TEXT
100
AcDbText
 8
Edge ID
100
AcDbText
10
1200.789131
20
84.143563
30
0.0
40
1.920000
72
1
11
1200.789131
21
84.143563
31
0.0
1
64
50
-27.737232
 0
TEXT
100
AcDbText
 8
Edge ID
100
AcDbText
10
1166.383800
20
136.207609
30
0.0
40
1.920000
72
1
11
1166.383800
21
136.207609
31
0.0
1
68
50
238.584796
 0
TEXT
100
AcDbText
 8
Edge ID
100
AcDbText
10
1245.044408
20
114.816590
30
0.0
40
1.920000
72
1
11
1245.044408
21
114.816590
31
0.0
1
63
50
95.862685
 0
TEXT
100
AcDbText
 8
Edge ID
100
AcDbText
10
1154.925273
20
148.883498
30
0.0
40
1.920000
72
1
11
1154.925273
21
148.883498
31
0.0
1
68
50
25.639996
 0
TEXT
100
AcDbText
 8
Edge ID
100
AcDbText
10
1109.392624
20
173.154112
30
0.0
40
1.920000
72
1
11
1109.392624
21
173.154112
31
0.0
1
69
50
-63.786621
  0
ENDSEC
  0
EOF
