  0
SECTION
  2
HEADER
  9
$ACADVER
  1
AC1009
  0
ENDSEC
  0
SECTION
  2
BLOCKS
  0
ENDSEC
  0
SECTION
  2
ENTITIES
  0
LINE
  8
CutLine
  6
CONTINUOUS
 62
8
 10
861.036368
 20
28.230875
 11
865.355271
 21
22.632030
  0
LINE
  8
CutLine
  6
CONTINUOUS
 62
8
 10
865.355271
 20
22.632030
 11
932.088169
 21
14.019770
  0
LINE
  8
CutLine
  6
CONTINUOUS
 62
8
 10
932.088169
 20
14.019770
 11
937.687015
 21
18.338674
  0
LINE
  8
CutLine
  6
CONTINUOUS
 62
8
 10
860.646603
 20
123.419502
 11
855.667118
 21
118.399071
  0
LINE
  8
CutLine
  6
CONTINUOUS
 62
8
 10
855.667118
 20
118.399071
 11
856.015936
 21
33.210360
  0
LINE
  8
CutLine
  6
CONTINUOUS
 62
8
 10
856.015936
 20
33.210360
 11
861.036368
 21
28.230875
  0
LINE
  8
CutLine
  6
CONTINUOUS
 62
8
 10
915.798337
 20
104.637411
 11
912.663950
 21
110.986826
  0
LINE
  8
CutLine
  6
CONTINUOUS
 62
8
 10
912.663950
 20
110.986826
 11
866.991528
 21
126.540708
  0
LINE
  8
CutLine
  6
CONTINUOUS
 62
8
 10
866.991528
 20
126.540708
 11
860.646603
 21
123.419502
  0
LINE
  8
CutLine
  6
CONTINUOUS
 62
8
 10
1034.035149
 20
17.683482
 11
1038.475635
 21
23.186397
  0
LINE
  8
CutLine
  6
CONTINUOUS
 62
8
 10
1038.475635
 20
23.186397
 11
1030.646481
 21
96.460436
  0
LINE
  8
CutLine
  6
CONTINUOUS
 62
8
 10
1030.646481
 20
96.460436
 11
1025.143565
 21
100.900923
  0
LINE
  8
CutLine
  6
CONTINUOUS
 62
8
 10
1025.143565
 20
100.900923
 11
1021.158577
 21
106.742144
  0
LINE
  8
CutLine
  6
CONTINUOUS
 62
8
 10
1021.158577
 20
106.742144
 11
952.852880
 21
119.645522
  0
LINE
  8
CutLine
  6
CONTINUOUS
 62
8
 10
952.852880
 20
119.645522
 11
947.011658
 21
115.660534
  0
LINE
  8
CutLine
  6
CONTINUOUS
 62
8
 10
1039.541623
 20
236.031028
 11
1034.938680
 21
241.398794
  0
LINE
  8
CutLine
  6
CONTINUOUS
 62
8
 10
1034.938680
 20
241.398794
 11
948.617077
 21
248.020257
  0
LINE
  8
CutLine
  6
CONTINUOUS
 62
8
 10
948.617077
 20
248.020257
 11
943.249311
 21
243.417313
  0
LINE
  8
CutLine
  6
CONTINUOUS
 62
8
 10
914.273485
 20
159.233088
 11
916.783130
 21
152.622364
  0
LINE
  8
CutLine
  6
CONTINUOUS
 62
8
 10
916.783130
 20
152.622364
 11
937.853536
 21
143.147814
  0
LINE
  8
CutLine
  6
CONTINUOUS
 62
8
 10
937.853536
 20
143.147814
 11
944.464261
 21
145.657460
  0
LINE
  8
CutLine
  6
CONTINUOUS
 62
8
 10
866.041840
 20
239.921009
 11
860.625455
 21
235.375376
  0
LINE
  8
CutLine
  6
CONTINUOUS
 62
8
 10
860.625455
 20
235.375376
 11
853.207568
 21
150.509523
  0
LINE
  8
CutLine
  6
CONTINUOUS
 62
8
 10
853.207568
 20
150.509523
 11
857.753200
 21
145.093138
  0
LINE
  8
MountainLine
  6
CONTINUOUS
 62
5
 10
915.798337
 20
104.637411
 11
861.036368
 21
28.230875
  0
LINE
  8
ValleyLine
  6
CONTINUOUS
 62
1
 10
861.036368
 20
28.230875
 11
937.687015
 21
18.338674
  0
LINE
  8
MountainLine
  6
CONTINUOUS
 62
5
 10
937.687015
 20
18.338674
 11
915.798337
 21
104.637411
  0
LINE
  8
MountainLine
  6
CONTINUOUS
 62
5
 10
937.687015
 20
18.338674
 11
947.011658
 21
115.660534
  0
LINE
  8
MountainLine
  6
CONTINUOUS
 62
5
 10
860.646603
 20
123.419502
 11
861.036368
 21
28.230875
  0
LINE
  8
ValleyLine
  6
CONTINUOUS
 62
1
 10
915.798337
 20
104.637411
 11
860.646603
 21
123.419502
  0
LINE
  8
CutLine
  6
CONTINUOUS
 62
8
 10
947.011658
 20
115.660534
 11
915.798337
 21
104.637411
  0
LINE
  8
MountainLine
  6
CONTINUOUS
 62
5
 10
1034.035149
 20
17.683482
 11
1025.143565
 21
100.900923
  0
LINE
  8
MountainLine
  6
CONTINUOUS
 62
5
 10
1025.143565
 20
100.900923
 11
947.011658
 21
115.660534
  0
LINE
  8
CutLine
  6
CONTINUOUS
 62
8
 10
937.687015
 20
18.338674
 11
1034.035149
 21
17.683482
  0
LINE
  8
MountainLine
  6
CONTINUOUS
 62
5
 10
1039.541623
 20
236.031028
 11
943.249311
 21
243.417313
  0
LINE
  8
MountainLine
  6
CONTINUOUS
 62
5
 10
943.249311
 20
243.417313
 11
944.464261
 21
145.657460
  0
LINE
  8
CutLine
  6
CONTINUOUS
 62
8
 10
1023.773809
 20
153.838700
 11
1039.541623
 21
236.031028
  0
LINE
  8
CutLine
  6
CONTINUOUS
 62
8
 10
944.464261
 20
145.657460
 11
1023.773809
 21
153.838700
  0
LINE
  8
MountainLine
  6
CONTINUOUS
 62
5
 10
914.273485
 20
159.233088
 11
944.464261
 21
145.657460
  0
LINE
  8
MountainLine
  6
CONTINUOUS
 62
5
 10
943.249311
 20
243.417313
 11
914.273485
 21
159.233088
  0
LINE
  8
MountainLine
  6
CONTINUOUS
 62
5
 10
866.041840
 20
239.921009
 11
914.273485
 21
159.233088
  0
LINE
  8
MountainLine
  6
CONTINUOUS
 62
5
 10
866.041840
 20
239.921009
 11
857.753200
 21
145.093138
  0
LINE
  8
CutLine
  6
CONTINUOUS
 62
8
 10
857.753200
 20
145.093138
 11
914.273485
 21
159.233088
  0
LINE
  8
CutLine
  6
CONTINUOUS
 62
8
 10
943.249311
 20
243.417313
 11
866.041840
 21
239.921009
 0
TEXT
100
AcDbText
 8
Edge ID
100
AcDbText
10
985.861082
20
18.011078
30
0.0
40
1.920000
72
1
11
985.861082
21
18.011078
31
0.0
1
52
50
-0.389620
 0
TEXT
100
AcDbText
 8
Edge ID
100
AcDbText
10
860.841485
20
75.825189
30
0.0
40
1.920000
72
1
11
860.841485
21
75.825189
31
0.0
1
36
50
-89.765395
 0
TEXT
100
AcDbText
 8
Edge ID
100
AcDbText
10
888.222470
20
114.028457
30
0.0
40
1.920000
72
1
11
888.222470
21
114.028457
31
0.0
1
37
50
161.193568
 0
TEXT
100
AcDbText
 8
Edge ID
100
AcDbText
10
931.404998
20
110.148973
30
0.0
40
1.920000
72
1
11
931.404998
21
110.148973
31
0.0
1
47
50
199.450899
 0
TEXT
100
AcDbText
 8
Edge ID
100
AcDbText
10
899.361691
20
23.284774
30
0.0
40
1.920000
72
1
11
899.361691
21
23.284774
31
0.0
1
35
50
-7.353700
 0
TEXT
100
AcDbText
 8
Edge ID
100
AcDbText
10
1029.589357
20
59.292202
30
0.0
40
1.920000
72
1
11
1029.589357
21
59.292202
31
0.0
1
38
50
96.098778
 0
TEXT
100
AcDbText
 8
Edge ID
100
AcDbText
10
986.077612
20
108.280728
30
0.0
40
1.920000
72
1
11
986.077612
21
108.280728
31
0.0
1
39
50
169.302525
 0
TEXT
100
AcDbText
 8
Edge ID
100
AcDbText
10
984.119035
20
149.748080
30
0.0
40
1.920000
72
1
11
984.119035
21
149.748080
31
0.0
1
50
50
5.889561
 0
TEXT
100
AcDbText
 8
Edge ID
100
AcDbText
10
1031.657716
20
194.934864
30
0.0
40
1.920000
72
1
11
1031.657716
21
194.934864
31
0.0
1
38
50
79.140290
 0
TEXT
100
AcDbText
 8
Edge ID
100
AcDbText
10
861.897520
20
192.507073
30
0.0
40
1.920000
72
1
11
861.897520
21
192.507073
31
0.0
1
45
50
265.004632
 0
TEXT
100
AcDbText
 8
Edge ID
100
AcDbText
10
886.013343
20
152.163113
30
0.0
40
1.920000
72
1
11
886.013343
21
152.163113
31
0.0
1
33
50
14.045669
 0
TEXT
100
AcDbText
 8
Edge ID
100
AcDbText
10
904.645576
20
241.669161
30
0.0
40
1.920000
72
1
11
904.645576
21
241.669161
31
0.0
1
54
50
182.592841
 0
TEXT
100
AcDbText
 8
Edge ID
100
AcDbText
10
929.368873
20
152.445274
30
0.0
40
1.920000
72
1
11
929.368873
21
152.445274
31
0.0
1
44
50
-24.211613
 0
TEXT
100
AcDbText
 8
Edge ID
100
AcDbText
10
991.395467
20
239.724170
30
0.0
40
1.920000
72
1
11
991.395467
21
239.724170
31
0.0
1
43
50
175.613608
  0
ENDSEC
  0
EOF
