  0
SECTION
  2
HEADER
  9
$ACADVER
  1
AC1009
  0
ENDSEC
  0
SECTION
  2
BLOCKS
  0
ENDSEC
  0
SECTION
  2
ENTITIES
  0
LINE
  8
CutLine
  6
CONTINUOUS
 62
8
 10
1606.453964
 20
240.791658
 11
1601.594102
 21
245.927975
  0
LINE
  8
CutLine
  6
CONTINUOUS
 62
8
 10
1601.594102
 20
245.927975
 11
1500.160744
 21
248.733224
  0
LINE
  8
CutLine
  6
CONTINUOUS
 62
8
 10
1500.160744
 20
248.733224
 11
1495.024428
 21
243.873362
  0
LINE
  8
CutLine
  6
CONTINUOUS
 62
8
 10
1493.292229
 20
181.403964
 11
1497.668122
 21
175.849546
  0
LINE
  8
CutLine
  6
CONTINUOUS
 62
8
 10
1497.668122
 20
175.849546
 11
1583.416718
 21
165.672944
  0
LINE
  8
CutLine
  6
CONTINUOUS
 62
8
 10
1583.416718
 20
165.672944
 11
1588.971136
 21
170.048837
  0
LINE
  8
CutLine
  6
CONTINUOUS
 62
8
 10
1664.833785
 20
155.282797
 11
1666.143894
 21
162.231438
  0
LINE
  8
CutLine
  6
CONTINUOUS
 62
8
 10
1666.143894
 20
162.231438
 11
1613.402605
 21
239.481548
  0
LINE
  8
CutLine
  6
CONTINUOUS
 62
8
 10
1613.402605
 20
239.481548
 11
1606.453964
 21
240.791658
  0
LINE
  8
CutLine
  6
CONTINUOUS
 62
8
 10
1478.224733
 20
92.632902
 11
1480.928571
 21
86.099200
  0
LINE
  8
CutLine
  6
CONTINUOUS
 62
8
 10
1480.928571
 20
86.099200
 11
1543.084830
 21
60.329347
  0
LINE
  8
CutLine
  6
CONTINUOUS
 62
8
 10
1543.084830
 20
60.329347
 11
1549.618532
 21
63.033184
  0
LINE
  8
CutLine
  6
CONTINUOUS
 62
8
 10
1574.125112
 20
131.659881
 11
1567.609235
 21
134.406396
  0
LINE
  8
CutLine
  6
CONTINUOUS
 62
8
 10
1567.609235
 20
134.406396
 11
1480.971249
 21
99.148779
  0
LINE
  8
CutLine
  6
CONTINUOUS
 62
8
 10
1480.971249
 20
99.148779
 11
1478.224733
 21
92.632902
  0
LINE
  8
CutLine
  6
CONTINUOUS
 62
8
 10
1635.838222
 20
19.525350
 11
1642.726500
 21
21.122728
  0
LINE
  8
CutLine
  6
CONTINUOUS
 62
8
 10
1642.726500
 20
21.122728
 11
1670.500241
 21
65.666834
  0
LINE
  8
CutLine
  6
CONTINUOUS
 62
8
 10
1670.500241
 20
65.666834
 11
1668.902863
 21
72.555113
  0
LINE
  8
MountainLine
  6
CONTINUOUS
 62
5
 10
1588.971136
 20
170.048837
 11
1606.453964
 21
240.791658
  0
LINE
  8
MountainLine
  6
CONTINUOUS
 62
5
 10
1606.453964
 20
240.791658
 11
1495.024428
 21
243.873362
  0
LINE
  8
CutLine
  6
CONTINUOUS
 62
8
 10
1495.024428
 20
243.873362
 11
1493.292229
 21
181.403964
  0
LINE
  8
MountainLine
  6
CONTINUOUS
 62
5
 10
1493.292229
 20
181.403964
 11
1588.971136
 21
170.048837
  0
LINE
  8
ValleyLine
  6
CONTINUOUS
 62
1
 10
1664.833785
 20
155.282797
 11
1606.453964
 21
240.791658
  0
LINE
  8
CutLine
  6
CONTINUOUS
 62
8
 10
1588.971136
 20
170.048837
 11
1664.833785
 21
155.282797
  0
LINE
  8
ValleyLine
  6
CONTINUOUS
 62
1
 10
1478.224733
 20
92.632902
 11
1549.618532
 21
63.033184
  0
LINE
  8
MountainLine
  6
CONTINUOUS
 62
5
 10
1549.618532
 20
63.033184
 11
1574.125112
 21
131.659881
  0
LINE
  8
ValleyLine
  6
CONTINUOUS
 62
1
 10
1574.125112
 20
131.659881
 11
1478.224733
 21
92.632902
  0
LINE
  8
MountainLine
  6
CONTINUOUS
 62
5
 10
1635.838222
 20
19.525350
 11
1668.902863
 21
72.555113
  0
LINE
  8
CutLine
  6
CONTINUOUS
 62
8
 10
1549.618532
 20
63.033184
 11
1635.838222
 21
19.525350
  0
LINE
  8
CutLine
  6
CONTINUOUS
 62
8
 10
1668.902863
 20
72.555113
 11
1574.125112
 21
131.659881
 0
TEXT
100
AcDbText
 8
Edge ID
100
AcDbText
10
1635.643874
20
198.037227
30
0.0
40
1.920000
72
1
11
1635.643874
21
198.037227
31
0.0
1
53
50
124.322688
 0
TEXT
100
AcDbText
 8
Edge ID
100
AcDbText
10
1626.902460
20
162.665817
30
0.0
40
1.920000
72
1
11
1626.902460
21
162.665817
31
0.0
1
35
50
-11.014435
 0
TEXT
100
AcDbText
 8
Edge ID
100
AcDbText
10
1550.739196
20
242.332510
30
0.0
40
1.920000
72
1
11
1550.739196
21
242.332510
31
0.0
1
51
50
178.415827
 0
TEXT
100
AcDbText
 8
Edge ID
100
AcDbText
10
1494.158329
20
212.638663
30
0.0
40
1.920000
72
1
11
1494.158329
21
212.638663
31
0.0
1
56
50
268.411666
 0
TEXT
100
AcDbText
 8
Edge ID
100
AcDbText
10
1541.131683
20
175.726401
30
0.0
40
1.920000
72
1
11
1541.131683
21
175.726401
31
0.0
1
52
50
-6.768178
 0
TEXT
100
AcDbText
 8
Edge ID
100
AcDbText
10
1592.728377
20
41.279267
30
0.0
40
1.920000
72
1
11
1592.728377
21
41.279267
31
0.0
1
43
50
-26.776242
 0
TEXT
100
AcDbText
 8
Edge ID
100
AcDbText
10
1652.370543
20
46.040231
30
0.0
40
1.920000
72
1
11
1652.370543
21
46.040231
31
0.0
1
56
50
58.056006
 0
TEXT
100
AcDbText
 8
Edge ID
100
AcDbText
10
1621.513988
20
102.107497
30
0.0
40
1.920000
72
1
11
1621.513988
21
102.107497
31
0.0
1
57
50
148.051742
 0
TEXT
100
AcDbText
 8
Edge ID
100
AcDbText
10
1513.921632
20
77.833043
30
0.0
40
1.920000
72
1
11
1513.921632
21
77.833043
31
0.0
1
54
50
-22.518793
 0
TEXT
100
AcDbText
 8
Edge ID
100
AcDbText
10
1526.174923
20
112.146392
30
0.0
40
1.920000
72
1
11
1526.174923
21
112.146392
31
0.0
1
55
50
202.144029
  0
ENDSEC
  0
EOF
