  0
SECTION
  2
HEADER
  9
$ACADVER
  1
AC1009
  0
ENDSEC
  0
SECTION
  2
BLOCKS
  0
ENDSEC
  0
SECTION
  2
ENTITIES
  0
LINE
  8
CutLine
  6
CONTINUOUS
 62
8
 10
693.436309
 20
38.371824
 11
697.143667
 21
32.350571
  0
LINE
  8
CutLine
  6
CONTINUOUS
 62
8
 10
697.143667
 20
32.350571
 11
796.080626
 21
8.818974
  0
LINE
  8
CutLine
  6
CONTINUOUS
 62
8
 10
796.080626
 20
8.818974
 11
802.101879
 21
12.526332
  0
LINE
  8
CutLine
  6
CONTINUOUS
 62
8
 10
677.236111
 20
199.648272
 11
671.075903
 21
196.176695
  0
LINE
  8
CutLine
  6
CONTINUOUS
 62
8
 10
671.075903
 20
196.176695
 11
648.438630
 21
115.080642
  0
LINE
  8
CutLine
  6
CONTINUOUS
 62
8
 10
648.438630
 20
115.080642
 11
651.910207
 21
108.920435
  0
LINE
  8
CutLine
  6
CONTINUOUS
 62
8
 10
788.093880
 20
261.228560
 11
782.399159
 21
265.420237
  0
LINE
  8
CutLine
  6
CONTINUOUS
 62
8
 10
782.399159
 20
265.420237
 11
745.515347
 21
259.812732
  0
LINE
  8
CutLine
  6
CONTINUOUS
 62
8
 10
745.515347
 20
259.812732
 11
741.323670
 21
254.118011
  0
LINE
  8
CutLine
  6
CONTINUOUS
 62
8
 10
785.016778
 20
179.628404
 11
790.201641
 21
184.436439
  0
LINE
  8
CutLine
  6
CONTINUOUS
 62
8
 10
790.201641
 20
184.436439
 11
792.901915
 21
256.043698
  0
LINE
  8
CutLine
  6
CONTINUOUS
 62
8
 10
792.901915
 20
256.043698
 11
788.093880
 21
261.228560
  0
LINE
  8
CutLine
  6
CONTINUOUS
 62
8
 10
790.065268
 20
91.223319
 11
753.077431
 21
102.596421
  0
LINE
  8
MountainLine
  6
CONTINUOUS
 62
5
 10
693.436309
 20
38.371824
 11
802.101879
 21
12.526332
  0
LINE
  8
CutLine
  6
CONTINUOUS
 62
8
 10
753.077431
 20
102.596421
 11
739.729435
 21
126.470775
  0
LINE
  8
CutLine
  6
CONTINUOUS
 62
8
 10
651.910207
 20
108.920435
 11
693.436309
 21
38.371824
  0
LINE
  8
MountainLine
  6
CONTINUOUS
 62
5
 10
677.236111
 20
199.648272
 11
651.910207
 21
108.920435
  0
LINE
  8
CutLine
  6
CONTINUOUS
 62
8
 10
739.729435
 20
126.470775
 11
745.331661
 21
158.277431
  0
LINE
  8
CutLine
  6
CONTINUOUS
 62
8
 10
745.331661
 20
158.277431
 11
768.526700
 21
177.119839
  0
LINE
  8
CutLine
  6
CONTINUOUS
 62
8
 10
741.323670
 20
254.118011
 11
677.236111
 21
199.648272
  0
LINE
  8
MountainLine
  6
CONTINUOUS
 62
5
 10
788.093880
 20
261.228560
 11
741.323670
 21
254.118011
  0
LINE
  8
CutLine
  6
CONTINUOUS
 62
8
 10
768.526700
 20
177.119839
 11
785.016778
 21
179.628404
  0
LINE
  8
MountainLine
  6
CONTINUOUS
 62
5
 10
785.016778
 20
179.628404
 11
788.093880
 21
261.228560
  0
LINE
  8
CutLine
  6
CONTINUOUS
 62
8
 10
802.101879
 20
12.526332
 11
790.065268
 21
91.223319
 0
TEXT
100
AcDbText
 8
Edge ID
100
AcDbText
10
764.708775
20
257.673286
30
0.0
40
1.920000
72
1
11
764.708775
21
257.673286
31
0.0
1
59
50
188.644572
 0
TEXT
100
AcDbText
 8
Edge ID
100
AcDbText
10
786.555329
20
220.428482
30
0.0
40
1.920000
72
1
11
786.555329
21
220.428482
31
0.0
1
60
50
87.840428
 0
TEXT
100
AcDbText
 8
Edge ID
100
AcDbText
10
709.279891
20
226.883141
30
0.0
40
1.920000
72
1
11
709.279891
21
226.883141
31
0.0
1
61
50
220.362104
 0
TEXT
100
AcDbText
 8
Edge ID
100
AcDbText
10
664.573159
20
154.284353
30
0.0
40
1.920000
72
1
11
664.573159
21
154.284353
31
0.0
1
58
50
254.403377
 0
TEXT
100
AcDbText
 8
Edge ID
100
AcDbText
10
672.673258
20
73.646130
30
0.0
40
1.920000
72
1
11
672.673258
21
73.646130
31
0.0
1
9
50
-59.518215
 0
TEXT
100
AcDbText
 8
Edge ID
100
AcDbText
10
796.083573
20
51.874826
30
0.0
40
1.920000
72
1
11
796.083573
21
51.874826
31
0.0
1
42
50
98.695931
 0
TEXT
100
AcDbText
 8
Edge ID
100
AcDbText
10
747.769094
20
25.449078
30
0.0
40
1.920000
72
1
11
747.769094
21
25.449078
31
0.0
1
57
50
-13.378894
  0
ENDSEC
  0
EOF
