  0
SECTION
  2
HEADER
  9
$ACADVER
  1
AC1009
  0
ENDSEC
  0
SECTION
  2
BLOCKS
  0
ENDSEC
  0
SECTION
  2
ENTITIES
  0
LINE
  8
CutLine
  6
CONTINUOUS
 62
8
 10
1717.509676
 20
161.528856
 11
1723.259684
 21
157.413348
  0
LINE
  8
CutLine
  6
CONTINUOUS
 62
8
 10
1723.259684
 20
157.413348
 11
1799.909215
 21
170.112488
  0
LINE
  8
CutLine
  6
CONTINUOUS
 62
8
 10
1799.909215
 20
170.112488
 11
1804.024724
 21
175.862495
  0
LINE
  8
CutLine
  6
CONTINUOUS
 62
8
 10
1701.734090
 20
253.610827
 11
1697.650195
 21
247.838323
  0
LINE
  8
CutLine
  6
CONTINUOUS
 62
8
 10
1697.650195
 20
247.838323
 11
1711.555846
 21
166.671147
  0
LINE
  8
CutLine
  6
CONTINUOUS
 62
8
 10
1711.555846
 20
166.671147
 11
1717.509676
 21
161.528856
  0
LINE
  8
CutLine
  6
CONTINUOUS
 62
8
 10
1877.274780
 20
249.036378
 11
1872.818246
 21
254.526305
  0
LINE
  8
CutLine
  6
CONTINUOUS
 62
8
 10
1872.818246
 20
254.526305
 11
1801.340154
 21
261.952560
  0
LINE
  8
CutLine
  6
CONTINUOUS
 62
8
 10
1801.340154
 20
261.952560
 11
1795.850227
 21
257.496026
  0
LINE
  8
CutLine
  6
CONTINUOUS
 62
8
 10
1882.730402
 20
110.663308
 11
1877.543094
 21
117.272911
  0
LINE
  8
CutLine
  6
CONTINUOUS
 62
8
 10
1877.543094
 20
117.272911
 11
1778.679511
 21
144.422082
  0
LINE
  8
CutLine
  6
CONTINUOUS
 62
8
 10
1778.679511
 20
144.422082
 11
1772.533961
 21
140.924623
  0
LINE
  8
CutLine
  6
CONTINUOUS
 62
8
 10
1860.823322
 20
19.844565
 11
1866.856372
 21
23.532696
  0
LINE
  8
CutLine
  6
CONTINUOUS
 62
8
 10
1866.856372
 20
23.532696
 11
1886.418533
 21
104.630257
  0
LINE
  8
CutLine
  6
CONTINUOUS
 62
8
 10
1886.418533
 20
104.630257
 11
1882.730402
 21
110.663308
  0
LINE
  8
CutLine
  6
CONTINUOUS
 62
8
 10
1683.677883
 20
32.189467
 11
1692.588758
 21
27.118807
  0
LINE
  8
CutLine
  6
CONTINUOUS
 62
8
 10
1692.588758
 20
27.118807
 11
1772.479949
 21
26.486704
  0
LINE
  8
CutLine
  6
CONTINUOUS
 62
8
 10
1772.479949
 20
26.486704
 11
1777.519351
 21
31.446988
  0
LINE
  8
MountainLine
  6
CONTINUOUS
 62
5
 10
1717.509676
 20
161.528856
 11
1804.024724
 21
175.862495
  0
LINE
  8
MountainLine
  6
CONTINUOUS
 62
5
 10
1804.024724
 20
175.862495
 11
1795.850227
 21
257.496026
  0
LINE
  8
MountainLine
  6
CONTINUOUS
 62
5
 10
1795.850227
 20
257.496026
 11
1717.509676
 21
161.528856
  0
LINE
  8
MountainLine
  6
CONTINUOUS
 62
5
 10
1701.734090
 20
253.610827
 11
1717.509676
 21
161.528856
  0
LINE
  8
CutLine
  6
CONTINUOUS
 62
8
 10
1795.850227
 20
257.496026
 11
1701.734090
 21
253.610827
  0
LINE
  8
MountainLine
  6
CONTINUOUS
 62
5
 10
1877.274780
 20
249.036378
 11
1795.850227
 21
257.496026
  0
LINE
  8
CutLine
  6
CONTINUOUS
 62
8
 10
1804.024724
 20
175.862495
 11
1877.274780
 21
249.036378
  0
LINE
  8
MountainLine
  6
CONTINUOUS
 62
5
 10
1882.730402
 20
110.663308
 11
1772.533961
 21
140.924623
  0
LINE
  8
ValleyLine
  6
CONTINUOUS
 62
1
 10
1772.533961
 20
140.924623
 11
1777.519351
 21
31.446988
  0
LINE
  8
MountainLine
  6
CONTINUOUS
 62
5
 10
1860.823322
 20
19.844565
 11
1882.730402
 21
110.663308
  0
LINE
  8
CutLine
  6
CONTINUOUS
 62
8
 10
1777.519351
 20
31.446988
 11
1860.823322
 21
19.844565
  0
LINE
  8
CutLine
  6
CONTINUOUS
 62
8
 10
1772.533961
 20
140.924623
 11
1683.677883
 21
32.189467
  0
LINE
  8
MountainLine
  6
CONTINUOUS
 62
5
 10
1683.677883
 20
32.189467
 11
1777.519351
 21
31.446988
 0
TEXT
100
AcDbText
 8
Edge ID
100
AcDbText
10
1709.621883
20
207.569842
30
0.0
40
1.920000
72
1
11
1709.621883
21
207.569842
31
0.0
1
8
50
-80.278403
 0
TEXT
100
AcDbText
 8
Edge ID
100
AcDbText
10
1748.792158
20
255.553426
30
0.0
40
1.920000
72
1
11
1748.792158
21
255.553426
31
0.0
1
58
50
182.363879
 0
TEXT
100
AcDbText
 8
Edge ID
100
AcDbText
10
1840.649752
20
212.449437
30
0.0
40
1.920000
72
1
11
1840.649752
21
212.449437
31
0.0
1
55
50
44.970193
 0
TEXT
100
AcDbText
 8
Edge ID
100
AcDbText
10
1836.562503
20
253.266202
30
0.0
40
1.920000
72
1
11
1836.562503
21
253.266202
31
0.0
1
9
50
174.068505
 0
TEXT
100
AcDbText
 8
Edge ID
100
AcDbText
10
1760.767200
20
168.695676
30
0.0
40
1.920000
72
1
11
1760.767200
21
168.695676
31
0.0
1
7
50
9.407197
 0
TEXT
100
AcDbText
 8
Edge ID
100
AcDbText
10
1728.105922
20
86.557045
30
0.0
40
1.920000
72
1
11
1728.105922
21
86.557045
31
0.0
1
62
50
230.745030
 0
TEXT
100
AcDbText
 8
Edge ID
100
AcDbText
10
1730.598617
20
31.818228
30
0.0
40
1.920000
72
1
11
1730.598617
21
31.818228
31
0.0
1
15
50
-0.453318
 0
TEXT
100
AcDbText
 8
Edge ID
100
AcDbText
10
1871.776862
20
65.253936
30
0.0
40
1.920000
72
1
11
1871.776862
21
65.253936
31
0.0
1
14
50
76.438320
 0
TEXT
100
AcDbText
 8
Edge ID
100
AcDbText
10
1819.171337
20
25.645777
30
0.0
40
1.920000
72
1
11
1819.171337
21
25.645777
31
0.0
1
40
50
-7.929042
 0
TEXT
100
AcDbText
 8
Edge ID
100
AcDbText
10
1827.632182
20
125.793965
30
0.0
40
1.920000
72
1
11
1827.632182
21
125.793965
31
0.0
1
13
50
164.644394
  0
ENDSEC
  0
EOF
